<?xml version="1.0" encoding="UTF-8"?>
<!-- Generator: Adobe Illustrator 15.0.2, SVG Export Plug-In . SVG Version: 6.00 Build 0)  -->
<!DOCTYPE svg PUBLIC "-//W3C//DTD SVG 1.1//EN" "http://www.w3.org/Graphics/SVG/1.1/DTD/svg11.dtd">
<svg xmlns="http://www.w3.org/2000/svg" xmlns:xlink="http://www.w3.org/1999/xlink" version="1.1" id="Layer_1" x="0px" y="0px" width="512px" height="557.275px" viewBox="0 0 512 557.275" enable-background="new 0 0 512 557.275" xml:space="preserve">
<path d="M250.443,211.021c-30.968,23.73-60.822,49.039-95.579,67.384c-5.354,2.821-10.754,5.441-16.649,7.078  c-15.981,4.415-26.744,18.936-26.565,35.345c0.179,15.99,11.49,30.607,26.831,34.659c15.938,4.195,33.388-2.24,40.673-17.064  c9.581-19.562,26.046-31.725,42.871-43.731c6.517-4.644,8.955-3.987,14.201,2.26c5.845-11.89,11.565-23.478,17.303-35.144  c1.782,1.052,1.37,2.175,1.116,3.026c-9.529,33.052-17.841,66.468-28.812,99.082c-2.406,7.183-5.896,12.845-12.938,17.312  c-18.621,11.799-23.335,36.325-11.838,55.222c11.218,18.441,34.864,24.909,54.261,14.824c19.191-9.961,27.652-33.357,18.159-53  c-3.396-7.046-3.63-13.332-1.779-20.319c4.883-18.493,7.825-37.624,17.896-54.413c4.454-7.422,9.728-14.137,17.046-18.954  c8.474-5.598,14.915-4.442,21.052,3.571c7.37,9.649,11.036,20.221,10.017,32.634c-1.39,16.98,8.968,32.026,24.683,37.351  c15.363,5.234,32.26-0.312,41.578-13.591c9.734-13.87,9.318-31.381-2.208-44.536c-13.201-15.085-27.448-29.189-39.475-45.312  c-20.559-27.579-22.383-56.076-5-85.865c9.475-16.205,18.617-32.611,28.046-48.854c8.409-14.462,18.942-26.991,33.852-35.257  c12.584-6.987,24.975-8.283,37.74,0.106c8.169,5.38,17.065,9.676,25.521,14.637c19.208,11.27,29.402,28.075,29.455,50.378  c0.136,72.731,0.136,145.44-0.014,218.146c-0.052,21.819-9.948,38.754-28.753,49.481c-65.618,37.43-131.418,74.54-197.279,111.554  c-19.507,10.955-39.599,11.007-59.121,0.085c-66.265-37.137-132.492-74.339-198.487-111.95  C9.901,426.71,0.131,410.086,0.092,388.683c-0.126-73.329-0.12-146.684,0-220.013c0.039-21.146,9.549-37.81,27.653-48.128  c66.855-38.188,133.947-76.004,201.24-113.44c17.257-9.581,35.81-9.182,53.602-0.526c10.312,5,20.085,11.111,30.021,16.838  c7.915,4.533,11.402,11.948,12.454,20.617c1.851,15.309-1.883,29.438-9.324,42.676c-9.098,16.186-17.91,32.579-27.618,48.397  c-17.564,28.598-42.955,46.046-76.335,51.352c-21.318,3.366-42.491,0.513-63.645-1.86c-15.643-1.776-30.075,6.63-35.312,21.007  c-5.335,14.701,0.11,30.432,13.402,38.75c13.146,8.201,29.559,6.179,40.556-5.49c6.923-7.309,16.225-6.909,24.891-8.419  c6.747-1.182,13.669-1.409,20.546-1.796c2.461-0.14,4.354-1.243,6.363-2.295c10.348-5.438,20.653-10.87,30.968-16.345  C249.84,210.375,250.145,210.68,250.443,211.021z" fill="#000000"/>
</svg>
