<?xml version="1.0" encoding="UTF-8"?>
<!-- Generator: Adobe Illustrator 15.0.2, SVG Export Plug-In . SVG Version: 6.00 Build 0)  -->
<!DOCTYPE svg PUBLIC "-//W3C//DTD SVG 1.1//EN" "http://www.w3.org/Graphics/SVG/1.1/DTD/svg11.dtd">
<svg xmlns="http://www.w3.org/2000/svg" xmlns:xlink="http://www.w3.org/1999/xlink" version="1.1" id="Layer_1" x="0px" y="0px" width="512px" height="512px" viewBox="0 0 512 512" enable-background="new 0 0 512 512" xml:space="preserve">
<g>
	<path d="M474.076,0H37.795C16.931,0,0,16.535,0,36.893v438.163C0,495.444,16.931,512,37.795,512h436.281   C494.958,512,512,495.444,512,475.056V36.893C512,16.535,494.958,0,474.076,0z M151.851,436.292H75.875V191.965h75.976V436.292z    M113.864,158.556c-24.344,0-44.021-19.726-44.021-44.045c0-24.285,19.677-44.011,44.021-44.011   c24.281,0,44.011,19.726,44.011,44.011C157.875,138.83,138.146,158.556,113.864,158.556z M436.264,436.292h-75.847V317.486   c0-28.348-0.556-64.792-39.479-64.792c-39.521,0-45.549,30.868-45.549,62.736v120.875h-75.909V191.965h72.854v33.365h1.042   c10.139-19.201,34.917-39.459,71.861-39.459c76.847,0,91.041,50.587,91.041,116.399v134.021H436.264z" fill="#000000"/>
</g>
</svg>
